# xmcd
#
# Track frame offsets:
#	150
#	19519
#	49593
#	73752
#	113348
#	151811
#	179166
#	220984
#
# Disc length: 2996 seconds
#
# Revision: 1
# Processed by: cddbd v1.5.1PL2 Copyright (c) Steve Scherf et al.
# Submitted via: EasyCDDAExtractor 9.0.0.1
#
DISCID=650bb208
DTITLE=Deep Purple - Vaz Hafen Innsbruck 06-07-06 Disc 2
DYEAR=2006
DGENRE=Hard Rock
TTITLE0=Don's Solo
TTITLE1=Perfect Strangers
TTITLE2=Space Truckin'
TTITLE3=HIghway Star
TTITLE4=Smoke On The Water
TTITLE5=Hush
TTITLE6=Black Night
TTITLE7=Outro
EXTD=
EXTT0=
EXTT1=
EXTT2=
EXTT3=
EXTT4=
EXTT5=
EXTT6=
EXTT7=
PLAYORDER=
